<?xml version="1.0" encoding="UTF-8" standalone="no"?>
<!-- Created with Inkscape (http://www.inkscape.org/) -->

<svg
   xmlns:svg="http://www.w3.org/2000/svg"
   xmlns="http://www.w3.org/2000/svg"
   version="1.0"
   width="177"
   height="89"
   viewBox="-108.198 0 337.012 150"
   id="Layer_1"
   xml:space="preserve"><defs
   id="defs4081">
	
	
	
	
	
	
	
	
	
</defs>




<path
   d="m -48.747614,5.797109 c -24.037247,0 -40.282597,18.3299 -36.102067,40.744035 l 10.086741,53.988526 c 4.187133,22.41258 27.280705,40.76278 51.316301,40.76278 l 163.649589,0 c 24.0323,0 47.12423,-18.3502 51.31631,-40.76278 L 201.60434,46.541144 C 205.78488,24.127009 189.54777,5.797109 165.50228,5.797109 l -214.249894,0 0,0 z"
   id="path4052"
   style="fill:none;stroke:#000000;stroke-width:4.16938019" /><g
   id="g3624"><circle
     cx="3.0239999"
     cy="60.5"
     r="5.8189998"
     transform="matrix(1.64978,0,0,1.56185,-41.1174,-43.5434)"
     id="circle4062"
     style="fill:#000000;fill-opacity:1;stroke:#000000;stroke-width:2.59739995" /><circle
     cx="31.67"
     cy="60.5"
     r="5.8189998"
     transform="matrix(1.64978,0,0,1.56185,-41.1174,-43.5434)"
     id="circle4064"
     style="fill:#000000;fill-opacity:1;stroke:#000000;stroke-width:2.59739995" /><circle
     cx="60.310001"
     cy="60.5"
     r="5.8150001"
     transform="matrix(1.64978,0,0,1.56185,-41.1174,-43.5434)"
     id="circle4066"
     style="fill:#000000;fill-opacity:1;stroke:#000000;stroke-width:2.59739995" /><path
     d="m 105.62228,41.861682 c 5.3024,0 9.59842,4.070181 9.59842,9.089967 0,5.018224 -4.29602,9.085281 -9.59842,9.085281 -5.29414,0 -9.595118,-4.067057 -9.595118,-9.085281 0,-5.019786 4.300978,-9.089967 9.595118,-9.089967 z"
     id="path4068"
     style="fill:#000000;fill-opacity:1;stroke:#000000;stroke-width:4.16938019" /><circle
     cx="117.588"
     cy="60.5"
     r="5.8189998"
     transform="matrix(1.64978,0,0,1.56185,-41.1174,-43.5434)"
     id="circle4070"
     style="fill:#000000;fill-opacity:1;stroke:#000000;stroke-width:2.59739995" /><circle
     cx="17.348"
     cy="89.436996"
     r="5.8169999"
     transform="matrix(1.64978,0,0,1.56185,-41.1174,-43.5434)"
     id="circle4072"
     style="fill:#000000;fill-opacity:1;stroke:#000000;stroke-width:2.59739995" /><circle
     cx="45.990002"
     cy="89.436996"
     r="5.8169999"
     transform="matrix(1.64978,0,0,1.56185,-41.1174,-43.5434)"
     id="circle4074"
     style="fill:#000000;fill-opacity:1;stroke:#000000;stroke-width:2.59739995" /><circle
     cx="74.624001"
     cy="89.436996"
     r="5.8169999"
     transform="matrix(1.64978,0,0,1.56185,-41.1174,-43.5434)"
     id="circle4076"
     style="fill:#000000;fill-opacity:1;stroke:#000000;stroke-width:2.59739995" /><path
     d="m 129.25703,87.056935 c 5.29744,0 9.58852,4.067058 9.58852,9.082158 0,5.016667 -4.29108,9.083717 -9.58852,9.083717 -5.30569,0 -9.59512,-4.06705 -9.59512,-9.083717 0,-5.013539 4.29108,-9.082158 9.59512,-9.082158 z"
     id="path4078"
     style="fill:#000000;fill-opacity:1;stroke:#000000;stroke-width:4.16938019" /></g><text
   x="-42.853001"
   y="35.770599"
   transform="scale(1.02776,0.972988)"
   id="text1365"
   xml:space="preserve"
   style="font-size:19.26250076px;font-style:normal;font-weight:normal;fill:#000000;fill-opacity:1;stroke:none;font-family:Bitstream Vera Sans"><tspan
     x="-42.853001"
     y="35.770599"
     id="tspan1367">1</tspan></text>

<text
   x="4.8157802"
   y="35.5084"
   transform="scale(1.02776,0.972988)"
   id="text1369"
   xml:space="preserve"
   style="font-size:19.26250076px;font-style:normal;font-weight:normal;fill:#000000;fill-opacity:1;stroke:none;font-family:Bitstream Vera Sans"><tspan
     x="4.8157802"
     y="35.5084"
     id="tspan1371">2</tspan></text>

<text
   x="50.0909"
   y="35.2356"
   transform="scale(1.02776,0.972988)"
   id="text1373"
   xml:space="preserve"
   style="font-size:19.26250076px;font-style:normal;font-weight:normal;fill:#000000;fill-opacity:1;stroke:none;font-family:Bitstream Vera Sans"><tspan
     x="50.0909"
     y="35.2356"
     id="tspan1375">3</tspan></text>

<text
   x="96.181198"
   y="35.5084"
   transform="scale(1.02776,0.972988)"
   id="text1377"
   xml:space="preserve"
   style="font-size:19.26250076px;font-style:normal;font-weight:normal;fill:#000000;fill-opacity:1;stroke:none;font-family:Bitstream Vera Sans"><tspan
     x="96.181198"
     y="35.5084"
     id="tspan1379">4</tspan></text>

<text
   x="141.729"
   y="35.104"
   transform="scale(1.02776,0.972988)"
   id="text1381"
   xml:space="preserve"
   style="font-size:19.26250076px;font-style:normal;font-weight:normal;fill:#000000;fill-opacity:1;stroke:none;font-family:Bitstream Vera Sans"><tspan
     x="141.729"
     y="35.104"
     id="tspan1383">5</tspan></text>

<text
   x="-19.1966"
   y="130.065"
   transform="scale(1.02776,0.972988)"
   id="text1385"
   xml:space="preserve"
   style="font-size:19.26250076px;font-style:normal;font-weight:normal;fill:#000000;fill-opacity:1;stroke:none;font-family:Bitstream Vera Sans"><tspan
     x="-19.1966"
     y="130.065"
     id="tspan1387">6</tspan></text>

<text
   x="27.119499"
   y="130.216"
   transform="scale(1.02776,0.972988)"
   id="text1389"
   xml:space="preserve"
   style="font-size:19.26250076px;font-style:normal;font-weight:normal;fill:#000000;fill-opacity:1;stroke:none;font-family:Bitstream Vera Sans"><tspan
     x="27.119499"
     y="130.216"
     id="tspan1391">7</tspan></text>

<text
   x="73.943398"
   y="129.94299"
   transform="scale(1.02776,0.972988)"
   id="text1393"
   xml:space="preserve"
   style="font-size:19.26250076px;font-style:normal;font-weight:normal;fill:#000000;fill-opacity:1;stroke:none;font-family:Bitstream Vera Sans"><tspan
     x="73.943398"
     y="129.94299"
     id="tspan1395">8</tspan></text>

<text
   x="120.532"
   y="130.065"
   transform="scale(1.02776,0.972988)"
   id="text1397"
   xml:space="preserve"
   style="font-size:19.26250076px;font-style:normal;font-weight:normal;fill:#000000;fill-opacity:1;stroke:none;font-family:Bitstream Vera Sans"><tspan
     x="120.532"
     y="130.065"
     id="tspan1399">9</tspan></text>

</svg>