<?xml version="1.0" encoding="utf-8"?>
<!-- Generator: Adobe Illustrator 15.1.0, SVG Export Plug-In . SVG Version: 6.00 Build 0)  -->
<!DOCTYPE svg PUBLIC "-//W3C//DTD SVG 1.1//EN" "http://www.w3.org/Graphics/SVG/1.1/DTD/svg11.dtd">
<svg version="1.1" id="Layer_1" xmlns="http://www.w3.org/2000/svg" xmlns:xlink="http://www.w3.org/1999/xlink" x="0px" y="0px"
	 width="80.717px" height="62.302px" viewBox="0 0 80.717 62.302" enable-background="new 0 0 80.717 62.302" xml:space="preserve">
<polygon points="64.685,0.103 63.428,2.107 62.171,4.111 60.914,6.115 59.657,8.119 58.4,10.123 57.144,12.127 55.887,14.132 
	54.63,16.136 53.373,18.14 52.116,20.144 50.859,22.148 49.603,24.152 48.346,26.156 47.089,28.161 45.832,30.165 44.575,32.169 
	45.791,34.052 47.005,35.936 48.22,37.819 49.435,39.702 50.65,41.585 51.865,43.469 53.08,45.352 54.294,47.235 55.509,49.119 
	56.724,51.002 57.939,52.885 59.154,54.769 60.369,56.652 61.583,58.535 62.798,60.419 64.013,62.302 64.999,62.302 65.984,62.302 
	66.969,62.302 67.955,62.302 68.941,62.302 69.926,62.302 70.912,62.302 71.897,62.302 72.882,62.302 73.868,62.302 74.853,62.302 
	75.838,62.302 76.824,62.302 77.809,62.302 78.794,62.302 79.78,62.302 78.571,60.351 77.361,58.399 76.151,56.448 74.942,54.497 
	73.732,52.546 72.523,50.595 71.313,48.644 70.104,46.692 68.895,44.741 67.685,42.79 66.475,40.839 65.266,38.887 64.056,36.936 
	62.846,34.984 61.637,33.033 60.427,31.082 61.695,29.146 62.963,27.21 64.231,25.273 65.5,23.337 66.768,21.401 68.036,19.465 
	69.304,17.529 70.572,15.593 71.84,13.656 73.109,11.72 74.377,9.784 75.645,7.848 76.913,5.912 78.181,3.976 79.449,2.039 
	80.717,0.103 79.715,0.103 78.713,0.103 77.711,0.103 76.709,0.103 75.707,0.103 74.705,0.103 73.703,0.103 72.701,0.103 
	71.699,0.103 70.697,0.103 69.695,0.103 68.693,0.103 67.691,0.103 66.689,0.103 65.687,0.103 "/>
<polygon points="46.762,44.187 43.839,44.187 40.917,44.187 37.995,44.187 35.072,44.187 32.149,44.187 29.227,44.187 
	26.304,44.187 23.381,44.187 20.458,44.187 17.536,44.187 14.614,44.187 11.691,44.187 8.768,44.187 5.845,44.187 2.922,44.187 
	0,44.187 0,41.425 0,38.663 0,35.901 0,33.14 0,30.378 0,27.616 0,24.854 0,22.093 0,19.332 0,16.57 0,13.809 0,11.047 0,8.285 
	0,5.523 0,2.762 0,0 0.928,0 1.857,0 2.785,0 3.713,0 4.642,0 5.57,0 6.499,0 7.427,0 8.356,0 9.284,0 10.212,0 11.141,0 12.07,0 
	12.998,0 13.926,0 14.855,0 14.855,2.04 14.855,4.079 14.855,6.119 14.855,8.159 14.855,10.198 14.855,12.238 14.855,14.278 
	14.855,16.317 14.855,18.357 14.855,20.396 14.855,22.437 14.855,24.476 14.855,26.516 14.855,28.556 14.855,30.595 14.855,32.635 
	16.377,32.635 17.899,32.635 19.421,32.635 20.943,32.635 22.465,32.635 23.987,32.635 25.509,32.635 27.031,32.635 28.553,32.635 
	30.075,32.635 31.597,32.635 33.119,32.635 34.641,32.635 36.163,32.635 37.684,32.635 39.206,32.635 39.678,33.356 40.151,34.079 
	40.623,34.801 41.095,35.522 41.567,36.245 42.04,36.967 42.512,37.688 42.984,38.411 43.456,39.133 43.928,39.854 44.401,40.577 
	44.873,41.299 45.345,42.021 45.818,42.743 46.29,43.465 "/>
</svg>
